Land_normalized_Motion_pl06
version=1
nRows=22
nColumns=43
inDegrees=yes
endheader
time		pelvis_tilt		pelvis_list		pelvis_rotation		pelvis_tx		pelvis_ty		pelvis_tz		hip_flexion_r		hip_adduction_r		hip_rotation_r		knee_angle_r		ankle_angle_r		subtalar_angle_r		mtp_angle_r		hip_flexion_l		hip_adduction_l		hip_rotation_l		knee_angle_l		ankle_angle_l		subtalar_angle_l		mtp_angle_l		lumbar_extension		lumbar_bending		lumbar_rotation		neck_flexion		neck_lateral_bending		neck_rotation		arm_flex_r		arm_add_r		arm_rot_r		elbow_flex_r		pro_sup_r		wrist_flex_r		wrist_dev_r		hand_finger_flex_r		arm_flex_l		arm_add_l		arm_rot_l		elbow_flex_l		pro_sup_l		wrist_flex_l		wrist_dev_l		hand_finger_flex_l		
1.057500		2.447259		2.323565		90.648823		-0.006536		0.632325		0.501753		70.014466		-11.447191		-9.665101		-94.500356		22.901866		-1.356611		-6.741823		72.192543		-9.039248		-3.689422		-97.740898		27.053195		-5.485453		-19.985108		-46.232333		0.250582		5.430030		0.004595		-0.788053		-0.872017		-37.259961		-8.477686		-43.284676		41.326755		93.011889		-27.358897		-20.311612		40.447130		-35.301942		-7.674703		-29.110185		33.207332		94.692032		-35.548136		-11.529581		90.000210		
1.060227		2.475872		2.568678		90.580573		-0.006546		0.624288		0.499503		70.956848		-11.463932		-9.280777		-96.303703		22.998785		-1.287816		-6.724048		73.170099		-9.118991		-3.460936		-99.561704		27.065509		-5.618766		-19.965666		-47.175284		0.215620		5.376808		1.496694		-0.822825		-0.850343		-35.518379		-9.222690		-42.852108		42.709154		93.410438		-27.380537		-20.862581		41.244801		-33.461605		-7.918967		-28.922606		34.700088		94.934479		-35.137278		-11.913959		90.000210		
1.062955		2.497823		2.853674		90.527069		-0.006541		0.616526		0.497242		71.791463		-11.506285		-8.939036		-98.039594		23.187585		-1.191295		-6.692667		74.007668		-9.192188		-3.267972		-101.277832		27.207771		-5.735699		-19.923691		-48.157060		0.181105		5.298088		2.996886		-0.845637		-0.791379		-33.789950		-10.012216		-42.290878		44.173260		93.824664		-27.463235		-21.426606		42.136045		-31.660445		-8.211453		-28.671968		36.328748		95.187327		-34.605844		-12.303625		90.000210		
1.065682		2.517607		3.176598		90.487774		-0.006584		0.609055		0.494931		72.507143		-11.574288		-8.649125		-99.702607		23.482200		-1.090455		-6.650973		74.697537		-9.254657		-3.106565		-102.884375		27.495375		-5.831069		-19.857985		-49.164760		0.160036		5.192895		4.441887		-0.857422		-0.707311		-32.064937		-10.870047		-41.598973		45.706280		94.226312		-27.632643		-21.977952		43.067823		-29.903713		-8.558443		-28.328577		38.081940		95.432210		-33.992221		-12.682044		90.000210		
1.068409		2.461296		3.664079		90.467203		-0.006758		0.602208		0.492607		72.972013		-11.709956		-8.322145		-101.290291		23.915063		-0.898540		-6.668260		75.059255		-9.276404		-3.061928		-104.357396		27.900169		-5.899295		-19.622104		-50.350960		0.114336		4.947458		5.863814		-0.876871		-0.531710		-30.194296		-11.909965		-40.384882		47.169467		94.128315		-29.478923		-22.562372		46.979242		-28.151742		-8.904251		-28.180030		39.892954		95.771248		-32.727756		-13.114119		90.000210		
1.071136		2.389983		4.196325		90.463479		-0.007027		0.595658		0.490254		73.315724		-11.872112		-8.013151		-102.795842		24.436229		-0.705423		-6.733660		75.267120		-9.276574		-3.063808		-105.739196		28.413753		-5.965100		-19.264713		-51.550009		0.092596		4.647754		7.139579		-0.928542		-0.312379		-28.255680		-13.078901		-38.808834		48.614350		93.634771		-32.428294		-23.173913		52.742433		-26.443524		-9.281412		-28.060445		41.791627		96.183663		-31.196800		-13.563168		90.000210		
1.073864		2.498509		4.498274		90.492408		-0.007110		0.588684		0.487841		73.805366		-11.956310		-7.939047		-104.210188		24.940467		-0.713485		-6.697406		75.750768		-9.320587		-2.840423		-107.094070		29.071987		-5.866207		-19.140953		-52.469409		0.186600		4.589468		8.498384		-0.879056		-0.159410		-26.565768		-14.107593		-37.762941		50.267173		93.903804		-32.778949		-23.637228		52.785202		-24.854693		-9.915474		-27.109444		43.945465		96.201586		-30.943101		-13.764702		90.000210		
1.076591		2.574163		4.977615		90.520169		-0.007231		0.582308		0.485423		74.022246		-12.051774		-7.851078		-105.535959		25.552291		-0.684121		-6.706784		75.926173		-9.376874		-2.675725		-108.358925		29.904979		-5.608544		-18.936801		-53.567796		0.260146		4.456197		9.817192		-0.784274		0.036813		-24.864848		-15.282041		-36.298235		52.019522		93.975410		-33.914819		-24.010367		52.886705		-23.341425		-10.664819		-25.958869		46.253172		95.712030		-30.752966		-13.856639		90.000210		
1.079318		2.657267		5.207698		90.523750		-0.007385		0.575358		0.482983		74.521859		-12.116548		-7.774807		-106.837743		26.155446		-0.788872		-6.686220		76.347671		-9.431551		-2.543384		-109.578909		30.734929		-5.666184		-18.779276		-54.271344		0.349855		4.385408		10.674356		-0.816786		0.032402		-23.267725		-16.490547		-35.025179		53.806798		94.203451		-34.426831		-24.417288		52.982031		-21.889405		-11.495400		-24.788637		48.572354		95.659212		-30.552410		-14.134152		90.000210		
1.082045		2.712466		5.513733		90.531040		-0.007452		0.568859		0.480555		74.868799		-12.163702		-7.672264		-108.057772		26.835831		-0.850722		-6.751886		76.600981		-9.497290		-2.425928		-110.729543		31.706006		-5.449338		-18.524404		-55.081665		0.396302		4.243936		11.744519		-0.761038		0.132068		-21.522383		-17.832127		-33.268371		55.503439		94.213473		-36.085703		-24.573438		52.942822		-20.478254		-12.535566		-23.241010		50.977346		95.028964		-30.989178		-14.254631		90.000210		
1.084773		2.799688		5.674617		90.533393		-0.007763		0.561826		0.478067		75.421662		-12.170204		-7.498704		-109.294478		27.371108		-0.986728		-6.729185		77.071994		-9.504554		-2.252487		-111.936637		32.448174		-5.528261		-18.395925		-55.583258		0.512540		4.209815		12.300671		-0.729469		0.085056		-19.890883		-19.072319		-32.177318		57.265859		94.510929		-36.425137		-24.962174		52.938167		-19.006843		-13.509769		-22.038703		53.242161		95.152225		-30.918203		-14.566549		90.000210		
1.087500		2.794089		5.953897		90.553543		-0.007674		0.555437		0.475780		75.764715		-12.265309		-7.415047		-110.453809		28.094099		-0.981520		-6.737601		77.278814		-9.608947		-2.198466		-112.977174		33.586066		-4.879322		-18.165821		-56.356980		0.471950		4.121326		13.587766		-0.548799		0.239096		-18.198149		-20.426306		-30.487672		59.016786		95.034882		-38.296478		-24.956404		52.269394		-17.654201		-14.824305		-20.366957		55.984855		94.887008		-31.811685		-14.574141		90.000210		
1.090227		2.827134		6.051155		90.545751		-0.007713		0.548782		0.473472		76.296681		-12.289405		-7.278035		-111.567456		28.801476		-1.053248		-6.744471		77.705788		-9.658634		-2.082151		-114.041964		34.492871		-4.763693		-17.989352		-56.808101		0.472781		4.064720		14.390657		-0.384499		0.231435		-16.427587		-21.824982		-28.934093		60.644120		95.361624		-39.462667		-25.000000		51.779751		-16.174889		-16.200697		-18.703103		58.396107		94.884584		-32.759818		-14.598010		90.000210		
1.092955		2.848067		6.161080		90.526951		-0.007874		0.542206		0.471232		76.805471		-12.282747		-7.094046		-112.663758		29.479731		-1.092720		-6.722485		78.136394		-9.687845		-1.989548		-115.095732		35.381647		-4.614211		-17.844284		-57.219373		0.474244		4.053738		15.053434		-0.301204		0.205662		-14.628068		-23.280744		-27.516628		62.163255		95.816100		-40.322215		-24.999396		51.307438		-14.600193		-17.621166		-17.110689		60.730995		95.143296		-33.556432		-14.627895		90.000210		
1.095682		2.825359		6.346752		90.476224		-0.007855		0.535746		0.468978		77.260610		-12.289280		-6.874946		-113.789224		30.128648		-0.991048		-6.733803		78.475392		-9.798724		-1.928466		-116.181473		36.229531		-4.269815		-17.697117		-57.672993		0.406813		3.974155		15.593352		-0.166417		0.229796		-12.791341		-24.748634		-25.873747		63.754810		96.281152		-41.842045		-24.997585		50.488001		-13.071257		-19.157861		-15.407315		63.183083		95.372105		-35.239653		-14.345475		90.000210		
1.098409		2.826139		6.417363		90.447058		-0.007989		0.529228		0.466862		77.819634		-12.301965		-6.662752		-114.828484		30.806405		-0.941748		-6.725960		78.971827		-9.840106		-1.863211		-117.235332		36.955513		-4.150257		-17.594521		-57.980371		0.382181		3.969149		16.164449		-0.038502		0.218019		-10.848185		-26.256053		-24.408409		65.129345		96.696861		-42.702343		-24.997617		49.985901		-11.345034		-20.774567		-13.745367		65.369864		95.862664		-36.476121		-14.094713		90.000210		
1.101136		2.792617		6.534239		90.391836		-0.008030		0.522806		0.464774		78.346764		-12.320966		-6.423355		-115.906328		31.446788		-0.774018		-6.746686		79.438987		-9.922557		-1.812633		-118.321127		37.611302		-3.916725		-17.510605		-58.297122		0.309722		3.918850		16.612376		0.102876		0.236662		-8.859245		-27.767527		-22.818412		66.524112		97.144153		-43.888328		-24.996426		49.392360		-9.588005		-22.453554		-12.036508		67.570435		96.464994		-38.231698		-13.550355		90.000210		
1.103864		2.770157		6.593550		90.352126		-0.008066		0.516458		0.462844		78.915445		-12.337014		-6.194856		-116.933965		32.082355		-0.619839		-6.773999		79.998889		-9.967514		-1.735208		-119.372301		38.152633		-3.789755		-17.460971		-58.546244		0.254028		3.892805		17.043884		0.239669		0.256391		-6.751943		-29.277128		-21.294005		67.791228		97.570318		-44.774338		-25.000000		49.072724		-7.642845		-24.171037		-10.376873		69.576348		97.192915		-39.710590		-12.937011		90.000210		
1.106591		2.749222		6.662614		90.316960		-0.008182		0.510087		0.460953		79.483227		-12.369550		-5.949652		-117.955583		32.691064		-0.412400		-6.837756		80.607075		-10.033308		-1.694853		-120.468774		38.605368		-3.661797		-17.443441		-58.763058		0.216725		3.857598		17.405440		0.382763		0.300771		-4.555410		-30.815433		-19.696561		68.976959		98.006247		-45.773547		-24.971550		48.938537		-5.624029		-25.937105		-8.692259		71.510410		98.055782		-41.348485		-12.042656		90.000210		
1.109318		2.769551		6.710105		90.280950		-0.008366		0.503822		0.459155		80.068714		-12.421509		-5.786445		-118.948539		33.153841		-0.369576		-6.847867		81.264747		-10.072588		-1.603836		-121.544102		38.940228		-3.694459		-17.424750		-58.963217		0.234937		3.880680		17.832871		0.380746		0.283845		-2.320994		-32.314543		-18.332373		70.187156		98.431773		-45.929609		-24.952731		48.994782		-3.440856		-27.644762		-7.192544		73.186552		98.709366		-41.791463		-11.779337		90.000210		
1.112045		2.754217		6.709984		90.256396		-0.008390		0.497499		0.457478		80.711631		-12.453303		-5.540881		-119.920350		33.805491		0.003141		-6.909216		82.005627		-10.105884		-1.505465		-122.604562		39.247616		-3.530148		-17.448426		-59.047913		0.193905		3.853259		18.013339		0.614500		0.404630		0.143861		-33.800790		-16.602869		71.110568		99.020582		-47.056942		-24.890977		49.279684		-1.107116		-29.448631		-5.498972		74.817811		99.660713		-43.168892		-10.549236		90.000210		
1.114773		2.775853		6.718119		90.229499		-0.008513		0.491394		0.455959		81.350131		-12.491328		-5.383839		-120.847415		34.190808		0.028165		-6.913631		82.742952		-10.096105		-1.375556		-123.613837		39.482450		-3.587459		-17.443378		-59.223855		0.220811		3.882778		18.537532		0.576198		0.383217		2.560747		-35.246405		-15.243811		72.218982		99.457797		-47.027348		-24.938513		49.483978		1.364369		-31.110709		-4.117156		76.237563		100.247703		-43.277128		-10.336428		90.000210		
